<?xml version="1.0" encoding="UTF-8" standalone="no"?>
<!-- Created with Inkscape (http://www.inkscape.org/) -->

<svg
   version="1.1"
   id="svg824"
   xml:space="preserve"
   width="1980"
   height="1406.25"
   viewBox="0 0 1979.9999 1406.25"
   sodipodi:docname="domino4_EBS_EXT_SD_Card.svg"
   inkscape:version="1.1.1 (c3084ef, 2021-09-22)"
   xmlns:inkscape="http://www.inkscape.org/namespaces/inkscape"
   xmlns:sodipodi="http://sodipodi.sourceforge.net/DTD/sodipodi-0.dtd"
   xmlns="http://www.w3.org/2000/svg"
   xmlns:svg="http://www.w3.org/2000/svg"><defs
     id="defs828"><clipPath
       clipPathUnits="userSpaceOnUse"
       id="clipPath848"><path
         d="M 198,198 H 13835 V 9719 H 198 Z"
         clip-rule="evenodd"
         id="path846" /></clipPath></defs><sodipodi:namedview
     id="namedview826"
     pagecolor="#ffffff"
     bordercolor="#666666"
     borderopacity="1.0"
     inkscape:pageshadow="2"
     inkscape:pageopacity="0.0"
     inkscape:pagecheckerboard="0"
     showgrid="false"
     inkscape:zoom="0.54393939"
     inkscape:cx="990.00001"
     inkscape:cy="703.20335"
     inkscape:window-width="1920"
     inkscape:window-height="1027"
     inkscape:window-x="0"
     inkscape:window-y="25"
     inkscape:window-maximized="1"
     inkscape:current-layer="g830" /><g
     id="g830"
     inkscape:groupmode="layer"
     inkscape:label="domino4_EBS_EXT_SD_Card"
     transform="matrix(1.3333333,0,0,-1.3333333,-525.99985,366.77342)"><g
       id="g23918"
       transform="matrix(28.125001,0,0,28.125001,-10700.813,-7461.5452)"><g
         id="g834"
         transform="matrix(0.06,0,0,-0.06,0,595)"><g
           id="g836" /></g><g
         id="g838"
         transform="matrix(0.06,0,0,-0.06,0,595)"><g
           id="g840" /></g><g
         id="g842"
         transform="matrix(0.06,0,0,-0.06,0,595)"><g
           id="g844"
           clip-path="url(#clipPath848)"><g
             id="g850" /></g></g><g
         id="g866"
         transform="matrix(0.06,0,0,-0.06,0,595)" /><g
         id="g23872"><path
           d="m 399.96,257.8 h 3.36 v -17.04 h -3.36 z"
           style="fill:#cccccc;fill-opacity:1;fill-rule:nonzero;stroke:#cccccc;stroke-width:0.75;stroke-linecap:round;stroke-linejoin:round;stroke-miterlimit:10;stroke-dasharray:none;stroke-opacity:1"
           id="path870" /><path
           d="m 404.52,257.8 h 3.36 v -17.04 h -3.36 z"
           style="fill:#cccccc;fill-opacity:1;fill-rule:nonzero;stroke:#cccccc;stroke-width:0.75;stroke-linecap:round;stroke-linejoin:round;stroke-miterlimit:10;stroke-dasharray:none;stroke-opacity:1"
           id="path872" /><path
           d="m 409.02,257.8 h 3.36 v -17.04 h -3.36 z"
           style="fill:#cccccc;fill-opacity:1;fill-rule:nonzero;stroke:#cccccc;stroke-width:0.75;stroke-linecap:round;stroke-linejoin:round;stroke-miterlimit:10;stroke-dasharray:none;stroke-opacity:1"
           id="path874" /><path
           d="m 413.58,257.8 h 3.36 v -17.04 h -3.36 z"
           style="fill:#cccccc;fill-opacity:1;fill-rule:nonzero;stroke:#cccccc;stroke-width:0.75;stroke-linecap:round;stroke-linejoin:round;stroke-miterlimit:10;stroke-dasharray:none;stroke-opacity:1"
           id="path876" /><path
           d="m 418.08,257.8 h 3.36 v -17.04 h -3.36 z"
           style="fill:#cccccc;fill-opacity:1;fill-rule:nonzero;stroke:#cccccc;stroke-width:0.75;stroke-linecap:round;stroke-linejoin:round;stroke-miterlimit:10;stroke-dasharray:none;stroke-opacity:1"
           id="path878" /><path
           d="M 422.64,257.8 H 426 v -17.04 h -3.36 z"
           style="fill:#cccccc;fill-opacity:1;fill-rule:nonzero;stroke:#cccccc;stroke-width:0.75;stroke-linecap:round;stroke-linejoin:round;stroke-miterlimit:10;stroke-dasharray:none;stroke-opacity:1"
           id="path880" /><path
           d="m 427.14,257.8 h 3.36 v -17.04 h -3.36 z"
           style="fill:#cccccc;fill-opacity:1;fill-rule:nonzero;stroke:#cccccc;stroke-width:0.75;stroke-linecap:round;stroke-linejoin:round;stroke-miterlimit:10;stroke-dasharray:none;stroke-opacity:1"
           id="path882" /><path
           d="m 431.7,257.8 h 3.36 v -17.04 h -3.36 z"
           style="fill:#cccccc;fill-opacity:1;fill-rule:nonzero;stroke:#cccccc;stroke-width:0.75;stroke-linecap:round;stroke-linejoin:round;stroke-miterlimit:10;stroke-dasharray:none;stroke-opacity:1"
           id="path884" /><path
           d="m 436.2,257.8 h 3.36 v -17.04 h -3.36 z"
           style="fill:#cccccc;fill-opacity:1;fill-rule:nonzero;stroke:#cccccc;stroke-width:0.75;stroke-linecap:round;stroke-linejoin:round;stroke-miterlimit:10;stroke-dasharray:none;stroke-opacity:1"
           id="path886" /><path
           d="m 440.76,257.8 h 3.36 v -17.04 h -3.36 z"
           style="fill:#cccccc;fill-opacity:1;fill-rule:nonzero;stroke:#cccccc;stroke-width:0.75;stroke-linecap:round;stroke-linejoin:round;stroke-miterlimit:10;stroke-dasharray:none;stroke-opacity:1"
           id="path888" /></g><path
         d="m 394.86,237.94 v 36.78"
         style="fill:#000000;stroke:#000000;stroke-width:0.72;stroke-linecap:round;stroke-linejoin:round;stroke-miterlimit:10;stroke-dasharray:none;stroke-opacity:1"
         id="path944" /><path
         d="m 394.86,237.94 h 52.08"
         style="fill:#000000;stroke:#000000;stroke-width:0.72;stroke-linecap:round;stroke-linejoin:round;stroke-miterlimit:10;stroke-dasharray:none;stroke-opacity:1"
         id="path948" /><path
         d="m 446.94,237.94 v 36.78"
         style="fill:#000000;stroke:#000000;stroke-width:0.72;stroke-linecap:round;stroke-linejoin:round;stroke-miterlimit:10;stroke-dasharray:none;stroke-opacity:1"
         id="path950" /><g
         id="g23860"
         transform="translate(-0.29966,-17.00512)"><g
           aria-label="1"
           transform="scale(1,-1)"
           id="text3181"
           style="font-size:6px;line-height:1.25;stroke-width:0.75"><path
             d="M 403.21933,-264.09665 H 400.858 v -0.44531 h 0.9082 v -2.92383 h -0.9082 v -0.39844 q 0.18457,0 0.39551,-0.0293 0.21094,-0.0322 0.31934,-0.0908 0.13476,-0.0733 0.21093,-0.18457 0.0791,-0.11426 0.0908,-0.30469 h 0.4541 v 3.93164 h 0.89063 z"
             id="path23837" /></g><g
           aria-label="1
0"
           transform="scale(1,-1)"
           id="text3181-8"
           style="font-size:6px;line-height:1.25;stroke-width:0.75"><path
             d="m 443.57816,-267.89206 h -2.36133 v -0.44531 h 0.9082 v -2.92383 h -0.9082 v -0.39844 q 0.18457,0 0.39551,-0.0293 0.21093,-0.0322 0.31933,-0.0908 0.13477,-0.0733 0.21094,-0.18457 0.0791,-0.11426 0.0908,-0.30469 h 0.4541 v 3.93164 h 0.89063 z"
             id="path23834" /><path
             d="m 443.82132,-262.57468 q 0,1.17481 -0.36914,1.72559 -0.36621,0.54785 -1.13965,0.54785 -0.78516,0 -1.14844,-0.55664 -0.36035,-0.55664 -0.36035,-1.71094 0,-1.16308 0.36621,-1.71679 0.36621,-0.55664 1.14258,-0.55664 0.78516,0 1.14551,0.56543 0.36328,0.5625 0.36328,1.70214 z m -0.77051,1.33008 q 0.10254,-0.2373 0.1377,-0.55664 0.0381,-0.32226 0.0381,-0.77344 0,-0.44531 -0.0381,-0.77343 -0.0352,-0.32813 -0.14063,-0.55664 -0.10254,-0.22559 -0.28125,-0.33985 -0.17578,-0.11426 -0.4541,-0.11426 -0.27539,0 -0.45703,0.11426 -0.17871,0.11426 -0.28418,0.3457 -0.0996,0.2168 -0.1377,0.56543 -0.0352,0.34864 -0.0352,0.76465 0,0.45703 0.0322,0.76465 0.0322,0.30762 0.1377,0.55078 0.0967,0.22852 0.27246,0.34864 0.17871,0.12011 0.47168,0.12011 0.27539,0 0.45703,-0.11426 0.18164,-0.11425 0.28125,-0.3457 z"
             id="path23831" /></g><g
           aria-label="2"
           transform="scale(1,-1)"
           id="text3181-4"
           style="font-size:6px;line-height:1.25;stroke-width:0.75"><path
             d="m 407.99011,-264.09665 h -2.95312 v -0.6123 q 0.30761,-0.26368 0.61523,-0.52735 0.31055,-0.26367 0.57715,-0.52441 0.5625,-0.54492 0.77051,-0.86426 0.20801,-0.32227 0.20801,-0.69434 0,-0.33984 -0.22559,-0.53027 -0.22266,-0.19336 -0.62402,-0.19336 -0.26661,0 -0.57715,0.0937 -0.31055,0.0937 -0.60645,0.28711 h -0.0293 v -0.61523 q 0.208,-0.10254 0.55371,-0.1875 0.34863,-0.085 0.67382,-0.085 0.6709,0 1.05176,0.32519 0.38086,0.32227 0.38086,0.87598 0,0.24902 -0.0645,0.46582 -0.0615,0.21387 -0.18457,0.40722 -0.11426,0.18165 -0.26953,0.35743 -0.15235,0.17578 -0.37207,0.38964 -0.31348,0.30762 -0.64746,0.59766 -0.33399,0.28711 -0.62403,0.5332 h 2.34668 z"
             id="path23828" /></g><g
           aria-label="3"
           transform="scale(1,-1)"
           id="text3181-1"
           style="font-size:6px;line-height:1.25;stroke-width:0.75"><path
             d="m 412.10312,-266.19724 q 0.14062,0.12598 0.23144,0.31641 0.0908,0.19043 0.0908,0.49219 0,0.29883 -0.10839,0.54785 -0.1084,0.24902 -0.30469,0.43359 -0.21973,0.20508 -0.51856,0.30469 -0.29589,0.0967 -0.65039,0.0967 -0.36328,0 -0.71484,-0.0879 -0.35156,-0.085 -0.57715,-0.1875 v -0.6123 h 0.0439 q 0.24902,0.16406 0.58593,0.27246 0.33692,0.1084 0.65039,0.1084 0.18457,0 0.39258,-0.0615 0.20801,-0.0615 0.33692,-0.18164 0.13476,-0.12891 0.19922,-0.28418 0.0674,-0.15527 0.0674,-0.39258 0,-0.23437 -0.0762,-0.38672 -0.0732,-0.15527 -0.20508,-0.24316 -0.13184,-0.0908 -0.31934,-0.12305 -0.1875,-0.0351 -0.40429,-0.0351 h -0.26368 v -0.48633 h 0.20508 q 0.44531,0 0.70899,-0.18457 0.2666,-0.1875 0.2666,-0.54492 0,-0.15821 -0.0674,-0.27539 -0.0674,-0.12012 -0.1875,-0.19629 -0.12597,-0.0762 -0.26953,-0.10547 -0.14355,-0.0293 -0.32519,-0.0293 -0.27832,0 -0.5918,0.0996 -0.31348,0.0996 -0.5918,0.28125 h -0.0293 v -0.6123 q 0.20801,-0.10254 0.55371,-0.1875 0.34863,-0.0879 0.67383,-0.0879 0.31933,0 0.5625,0.0586 0.24316,0.0586 0.43945,0.1875 0.21094,0.14062 0.31934,0.33984 0.10839,0.19922 0.10839,0.46582 0,0.36328 -0.25781,0.63575 -0.25488,0.26953 -0.60351,0.33984 v 0.041 q 0.14062,0.0234 0.32226,0.0996 0.18164,0.0732 0.30762,0.18457 z"
             id="path23825" /></g><g
           aria-label="4"
           transform="scale(1,-1)"
           id="text3181-84"
           style="font-size:6px;line-height:1.25;stroke-width:0.75"><path
             d="m 417.1127,-265.32419 h -0.64746 v 1.22754 h -0.5625 v -1.22754 h -2.08887 v -0.67383 l 2.11231,-2.46093 h 0.53906 v 2.66601 h 0.64746 z m -1.20996,-0.46875 v -1.96875 l -1.69043,1.96875 z"
             id="path23822" /></g><g
           aria-label="5"
           transform="scale(1,-1)"
           id="text3181-0"
           style="font-size:6px;line-height:1.25;stroke-width:0.75"><path
             d="m 421.35901,-265.48239 q 0,0.30469 -0.11133,0.58301 -0.11133,0.27832 -0.30469,0.46875 -0.21093,0.20507 -0.5039,0.3164 -0.29004,0.1084 -0.67383,0.1084 -0.35742,0 -0.68848,-0.0762 -0.33105,-0.0732 -0.55957,-0.17871 v -0.61817 h 0.041 q 0.24023,0.15235 0.5625,0.26075 0.32226,0.10547 0.63281,0.10547 0.20801,0 0.40137,-0.0586 0.19629,-0.0586 0.34863,-0.20508 0.12891,-0.12597 0.19336,-0.30175 0.0674,-0.17579 0.0674,-0.40723 0,-0.22559 -0.0791,-0.38086 -0.0762,-0.15527 -0.21387,-0.24902 -0.15234,-0.11133 -0.37207,-0.15528 -0.21679,-0.0469 -0.48632,-0.0469 -0.25782,0 -0.49805,0.0351 -0.23731,0.0352 -0.41016,0.0703 v -2.24707 h 2.625 v 0.51269 h -2.05957 v 1.16016 q 0.12598,-0.0117 0.25781,-0.0176 0.13184,-0.006 0.22852,-0.006 0.35449,0 0.62109,0.0615 0.26661,0.0586 0.48926,0.21094 0.23438,0.16113 0.36328,0.41602 0.12891,0.25488 0.12891,0.63867 z"
             id="path23819" /></g><g
           aria-label="6"
           transform="scale(1,-1)"
           id="text3181-6"
           style="font-size:6px;line-height:1.25;stroke-width:0.75"><path
             d="m 425.95697,-265.51169 q 0,0.66504 -0.43945,1.08692 -0.43653,0.41894 -1.07227,0.41894 -0.32226,0 -0.58594,-0.0996 -0.26367,-0.0996 -0.46582,-0.2959 -0.25195,-0.24316 -0.38964,-0.64453 -0.13477,-0.40137 -0.13477,-0.96679 0,-0.58008 0.12305,-1.02833 0.12597,-0.44824 0.39843,-0.79687 0.25782,-0.33105 0.66504,-0.51563 0.40723,-0.1875 0.94922,-0.1875 0.17285,0 0.29004,0.0147 0.11719,0.0147 0.23731,0.0527 v 0.55957 h -0.0293 q -0.082,-0.0439 -0.24902,-0.082 -0.16407,-0.041 -0.33692,-0.041 -0.62988,0 -1.00488,0.39551 -0.375,0.39258 -0.43653,1.06348 0.2461,-0.14942 0.4834,-0.22559 0.24024,-0.0791 0.55371,-0.0791 0.27832,0 0.48926,0.0527 0.21387,0.0498 0.43653,0.20508 0.25781,0.17871 0.38671,0.45117 0.13184,0.27246 0.13184,0.66211 z m -0.59473,0.0234 q 0,-0.27246 -0.082,-0.45117 -0.0791,-0.17871 -0.26367,-0.31055 -0.13477,-0.0937 -0.29883,-0.12305 -0.16406,-0.0293 -0.34277,-0.0293 -0.24902,0 -0.46289,0.0586 -0.21387,0.0586 -0.43945,0.18164 -0.006,0.0645 -0.009,0.12598 -0.003,0.0586 -0.003,0.14941 0,0.46289 0.0937,0.73242 0.0967,0.26661 0.26367,0.42188 0.13476,0.1289 0.29004,0.19043 0.1582,0.0586 0.34277,0.0586 0.42481,0 0.66797,-0.25781 0.24316,-0.26074 0.24316,-0.74707 z"
             id="path23816" /></g><g
           aria-label="7"
           transform="scale(1,-1)"
           id="text3181-3"
           style="font-size:6px;line-height:1.25;stroke-width:0.75"><path
             d="m 430.38062,-267.80563 -1.97461,3.70898 h -0.62696 l 2.10059,-3.84961 h -2.48438 v -0.51269 h 2.98536 z"
             id="path23813" /></g><g
           aria-label="8"
           transform="scale(1,-1)"
           id="text3181-69"
           style="font-size:6px;line-height:1.25;stroke-width:0.75"><path
             d="m 434.91257,-265.31247 q 0,0.56543 -0.44239,0.94043 -0.43945,0.375 -1.10742,0.375 -0.70898,0 -1.13086,-0.36621 -0.41894,-0.36621 -0.41894,-0.9375 0,-0.36328 0.21094,-0.65625 0.21093,-0.2959 0.59472,-0.46875 v -0.0176 q -0.35156,-0.1875 -0.52148,-0.41016 -0.16699,-0.22265 -0.16699,-0.55664 0,-0.49218 0.40429,-0.82031 0.4043,-0.32812 1.02832,-0.32812 0.65332,0 1.04297,0.31347 0.38965,0.31348 0.38965,0.79688 0,0.2959 -0.18457,0.58301 -0.18457,0.28418 -0.54199,0.44531 v 0.0176 q 0.41015,0.17578 0.62695,0.43359 0.2168,0.25781 0.2168,0.65625 z m -0.69434,-2.12988 q 0,-0.31348 -0.24316,-0.49805 -0.24024,-0.1875 -0.61524,-0.1875 -0.36914,0 -0.60644,0.17578 -0.23438,0.17578 -0.23438,0.47461 0,0.21094 0.11719,0.36621 0.12012,0.15235 0.36035,0.27246 0.1084,0.0527 0.31055,0.1377 0.20508,0.085 0.39844,0.14062 0.29003,-0.19336 0.40136,-0.40136 0.11133,-0.20801 0.11133,-0.48047 z m 0.0908,2.18554 q 0,-0.26953 -0.12012,-0.43066 -0.11718,-0.16406 -0.46289,-0.32812 -0.13769,-0.0645 -0.30175,-0.12012 -0.16407,-0.0557 -0.43653,-0.15528 -0.26367,0.14356 -0.4248,0.38965 -0.15821,0.2461 -0.15821,0.55664 0,0.39551 0.27247,0.65332 0.27246,0.25782 0.6914,0.25782 0.42774,0 0.68262,-0.21973 0.25781,-0.21973 0.25781,-0.60352 z"
             id="path23810" /></g><g
           aria-label="9"
           transform="scale(1,-1)"
           id="text3181-37"
           style="font-size:6px;line-height:1.25;stroke-width:0.75"><path
             d="m 439.38162,-266.54001 q 0,0.57129 -0.13183,1.03711 -0.12891,0.46582 -0.39258,0.79395 -0.2666,0.33398 -0.66797,0.51562 -0.40137,0.18164 -0.94336,0.18164 -0.15234,0 -0.28711,-0.0176 -0.13476,-0.0146 -0.24023,-0.0498 v -0.55957 h 0.0293 q 0.085,0.0439 0.24024,0.085 0.15527,0.0381 0.3457,0.0381 0.64746,0 1.01367,-0.38672 0.36914,-0.38965 0.42774,-1.07227 -0.27246,0.16406 -0.5127,0.23438 -0.24023,0.0703 -0.52441,0.0703 -0.26953,0 -0.48926,-0.0527 -0.2168,-0.0527 -0.43652,-0.20507 -0.25782,-0.17871 -0.38965,-0.45411 -0.12891,-0.27539 -0.12891,-0.65918 0,-0.66796 0.43945,-1.08691 0.43946,-0.41894 1.07227,-0.41894 0.31641,0 0.58594,0.0996 0.26953,0.0967 0.47168,0.29297 0.24902,0.24317 0.38379,0.62696 0.13476,0.38086 0.13476,0.9873 z m -0.59179,-0.12598 q 0,-0.4541 -0.0937,-0.72949 -0.0937,-0.27539 -0.25782,-0.42773 -0.13769,-0.13184 -0.2959,-0.1875 -0.1582,-0.0586 -0.34277,-0.0586 -0.42187,0 -0.66797,0.26368 -0.24316,0.26367 -0.24316,0.74121 0,0.27832 0.0791,0.4541 0.0791,0.17578 0.2666,0.30762 0.13184,0.0908 0.29004,0.12304 0.1582,0.0293 0.35156,0.0293 0.22852,0 0.46289,-0.0615 0.23438,-0.0615 0.43946,-0.17871 0.003,-0.0615 0.006,-0.12012 0.006,-0.0615 0.006,-0.15528 z"
             id="path23807" /></g></g></g></g></svg>
