<?xml version="1.0" encoding="UTF-8" standalone="no"?>
<!-- Created with Inkscape (http://www.inkscape.org/) -->

<svg
   version="1.1"
   id="svg824"
   xml:space="preserve"
   width="1920"
   height="353.43283"
   viewBox="0 0 1920 353.43282"
   sodipodi:docname="Spine.svg"
   inkscape:version="1.1.1 (c3084ef, 2021-09-22)"
   xmlns:inkscape="http://www.inkscape.org/namespaces/inkscape"
   xmlns:sodipodi="http://sodipodi.sourceforge.net/DTD/sodipodi-0.dtd"
   xmlns="http://www.w3.org/2000/svg"
   xmlns:svg="http://www.w3.org/2000/svg"><defs
     id="defs828"><clipPath
       clipPathUnits="userSpaceOnUse"
       id="clipPath848"><path
         d="M 198,198 H 13835 V 9719 H 198 Z"
         clip-rule="evenodd"
         id="path846" /></clipPath><clipPath
       clipPathUnits="userSpaceOnUse"
       id="clipPath864"><path
         d="m 2680,3274 h 8673 V 6643 H 2680 Z"
         clip-rule="evenodd"
         id="path862" /></clipPath></defs><sodipodi:namedview
     id="namedview826"
     pagecolor="#ffffff"
     bordercolor="#666666"
     borderopacity="1.0"
     inkscape:pageshadow="2"
     inkscape:pageopacity="0.0"
     inkscape:pagecheckerboard="0"
     showgrid="false"
     inkscape:zoom="0.55677083"
     inkscape:cx="960"
     inkscape:cy="176.913"
     inkscape:window-width="1920"
     inkscape:window-height="1027"
     inkscape:window-x="0"
     inkscape:window-y="25"
     inkscape:window-maximized="1"
     inkscape:current-layer="g830" /><g
     id="g830"
     inkscape:groupmode="layer"
     inkscape:label="24mm2_15_VERTEBRA"
     transform="matrix(0,1.3333333,1.3333333,0,-280.54947,-236.40035)"><g
       id="g1667"
       transform="matrix(7.9602029,0,0,7.9602029,-1234.0459,-1464.511)"><g
         id="g834"
         transform="matrix(0.06,0,0,-0.06,-17.819726,587.87211)"
         style="stroke:#c90d0c;stroke-opacity:1"><g
           id="g836"
           style="stroke:#c90d0c;stroke-opacity:1" /></g><g
         id="g838"
         transform="matrix(0.06,0,0,-0.06,-17.819726,587.87211)"
         style="stroke:#c90d0c;stroke-opacity:1"><g
           id="g840"
           style="stroke:#c90d0c;stroke-opacity:1" /></g><g
         id="g842"
         transform="matrix(0.06,0,0,-0.06,-17.819726,587.87211)"
         style="stroke:#c90d0c;stroke-opacity:1"><g
           id="g844"
           clip-path="url(#clipPath848)"
           style="stroke:#c90d0c;stroke-opacity:1"><g
             id="g850"
             style="stroke:#c90d0c;stroke-opacity:1" /></g></g><g
         id="g866"
         transform="matrix(0.06,0,0,-0.06,-17.819726,587.87211)"
         style="stroke:#c90d0c;stroke-opacity:1" /><path
         d="m 181.62027,356.81211 h 23.76 v -3.96 h -23.76 z"
         style="fill:#cccccc;fill-opacity:1;fill-rule:nonzero;stroke:#cccccc;stroke-width:0.75;stroke-linecap:round;stroke-linejoin:round;stroke-miterlimit:10;stroke-dasharray:none;stroke-opacity:1"
         id="path958" /><path
         d="m 181.62027,351.17211 h 23.76 v -3.96 h -23.76 z"
         style="fill:#cccccc;fill-opacity:1;fill-rule:nonzero;stroke:#cccccc;stroke-width:0.75;stroke-linecap:round;stroke-linejoin:round;stroke-miterlimit:10;stroke-dasharray:none;stroke-opacity:1"
         id="path960" /><path
         d="m 181.62027,345.47211 h 23.76 v -3.96 h -23.76 z"
         style="fill:#cccccc;fill-opacity:1;fill-rule:nonzero;stroke:#cccccc;stroke-width:0.75;stroke-linecap:round;stroke-linejoin:round;stroke-miterlimit:10;stroke-dasharray:none;stroke-opacity:1"
         id="path962" /><path
         d="m 181.62027,339.83211 h 23.76 v -3.96 h -23.76 z"
         style="fill:#cccccc;fill-opacity:1;fill-rule:nonzero;stroke:#cccccc;stroke-width:0.75;stroke-linecap:round;stroke-linejoin:round;stroke-miterlimit:10;stroke-dasharray:none;stroke-opacity:1"
         id="path964" /><path
         d="m 181.62027,334.13211 h 23.76 v -3.96 h -23.76 z"
         style="fill:#cccccc;fill-opacity:1;fill-rule:nonzero;stroke:#cccccc;stroke-width:0.75;stroke-linecap:round;stroke-linejoin:round;stroke-miterlimit:10;stroke-dasharray:none;stroke-opacity:1"
         id="path966" /><path
         d="m 181.62027,328.49211 h 23.76 v -3.96 h -23.76 z"
         style="fill:#cccccc;fill-opacity:1;fill-rule:nonzero;stroke:#cccccc;stroke-width:0.75;stroke-linecap:round;stroke-linejoin:round;stroke-miterlimit:10;stroke-dasharray:none;stroke-opacity:1"
         id="path968" /><path
         d="m 181.62027,322.79211 h 23.76 v -3.96 h -23.76 z"
         style="fill:#cccccc;fill-opacity:1;fill-rule:nonzero;stroke:#cccccc;stroke-width:0.75;stroke-linecap:round;stroke-linejoin:round;stroke-miterlimit:10;stroke-dasharray:none;stroke-opacity:1"
         id="path970" /><path
         d="m 181.62027,283.13211 h 23.76 v -3.96 h -23.76 z"
         style="fill:#cccccc;fill-opacity:1;fill-rule:nonzero;stroke:#cccccc;stroke-width:0.75;stroke-linecap:round;stroke-linejoin:round;stroke-miterlimit:10;stroke-dasharray:none;stroke-opacity:1"
         id="path972" /><path
         d="m 181.62027,277.49211 h 23.76 v -3.96 h -23.76 z"
         style="fill:#cccccc;fill-opacity:1;fill-rule:nonzero;stroke:#cccccc;stroke-width:0.75;stroke-linecap:round;stroke-linejoin:round;stroke-miterlimit:10;stroke-dasharray:none;stroke-opacity:1"
         id="path974" /><path
         d="m 181.62027,271.85211 h 23.76 v -3.96 h -23.76 z"
         style="fill:#cccccc;fill-opacity:1;fill-rule:nonzero;stroke:#cccccc;stroke-width:0.75;stroke-linecap:round;stroke-linejoin:round;stroke-miterlimit:10;stroke-dasharray:none;stroke-opacity:1"
         id="path976" /><path
         d="m 181.62027,266.15211 h 23.76 v -3.96 h -23.76 z"
         style="fill:#cccccc;fill-opacity:1;fill-rule:nonzero;stroke:#cccccc;stroke-width:0.75;stroke-linecap:round;stroke-linejoin:round;stroke-miterlimit:10;stroke-dasharray:none;stroke-opacity:1"
         id="path978" /><path
         d="m 181.62027,260.51211 h 23.76 v -3.96 h -23.76 z"
         style="fill:#cccccc;fill-opacity:1;fill-rule:nonzero;stroke:#cccccc;stroke-width:0.75;stroke-linecap:round;stroke-linejoin:round;stroke-miterlimit:10;stroke-dasharray:none;stroke-opacity:1"
         id="path980" /><path
         d="m 181.62027,254.81211 h 23.76 v -3.96 h -23.76 z"
         style="fill:#cccccc;fill-opacity:1;fill-rule:nonzero;stroke:#cccccc;stroke-width:0.75;stroke-linecap:round;stroke-linejoin:round;stroke-miterlimit:10;stroke-dasharray:none;stroke-opacity:1"
         id="path982" /><path
         d="m 181.62027,249.17211 h 23.76 v -3.96 h -23.76 z"
         style="fill:#cccccc;fill-opacity:1;fill-rule:nonzero;stroke:#cccccc;stroke-width:0.75;stroke-linecap:round;stroke-linejoin:round;stroke-miterlimit:10;stroke-dasharray:none;stroke-opacity:1"
         id="path984" /><path
         d="m 177.66027,210.77211 h 32.28"
         style="fill:none;stroke:#000000;stroke-width:0.6;stroke-linecap:round;stroke-linejoin:round;stroke-miterlimit:10;stroke-dasharray:none;stroke-opacity:1"
         id="path2486" /><path
         d="m 209.94027,210.77211 v 3.42"
         style="fill:none;stroke:#000000;stroke-width:0.6;stroke-linecap:round;stroke-linejoin:round;stroke-miterlimit:10;stroke-dasharray:none;stroke-opacity:1"
         id="path2492" /><path
         d="m 177.66027,390.95211 h 32.28"
         style="fill:none;stroke:#000000;stroke-width:0.6;stroke-linecap:round;stroke-linejoin:round;stroke-miterlimit:10;stroke-dasharray:none;stroke-opacity:1"
         id="path2550" /><path
         d="m 209.94027,390.95211 v -3.36"
         style="fill:none;stroke:#000000;stroke-width:0.6;stroke-linecap:round;stroke-linejoin:round;stroke-miterlimit:10;stroke-dasharray:none;stroke-opacity:1"
         id="path2574" /><path
         d="m 180.48027,358.25211 -2.82,-2.82"
         style="fill:none;stroke:#000000;stroke-width:0.72;stroke-linecap:round;stroke-linejoin:round;stroke-miterlimit:10;stroke-dasharray:none;stroke-opacity:1"
         id="path2656" /><path
         d="m 177.66027,355.43211 v -34.86"
         style="fill:none;stroke:#000000;stroke-width:0.72;stroke-linecap:round;stroke-linejoin:round;stroke-miterlimit:10;stroke-dasharray:none;stroke-opacity:1"
         id="path2658" /><path
         d="m 204.84027,284.27211 h -24.36"
         style="fill:none;stroke:#000000;stroke-width:0.72;stroke-linecap:round;stroke-linejoin:round;stroke-miterlimit:10;stroke-dasharray:none;stroke-opacity:1"
         id="path2660" /><path
         d="m 180.48027,284.27211 -2.82,-2.82"
         style="fill:none;stroke:#000000;stroke-width:0.72;stroke-linecap:round;stroke-linejoin:round;stroke-miterlimit:10;stroke-dasharray:none;stroke-opacity:1"
         id="path2662" /><path
         d="m 177.66027,281.45211 v -35.1"
         style="fill:none;stroke:#000000;stroke-width:0.72;stroke-linecap:round;stroke-linejoin:round;stroke-miterlimit:10;stroke-dasharray:none;stroke-opacity:1"
         id="path2664" /><path
         d="m 177.66027,246.35211 2.82,-2.88"
         style="fill:none;stroke:#000000;stroke-width:0.72;stroke-linecap:round;stroke-linejoin:round;stroke-miterlimit:10;stroke-dasharray:none;stroke-opacity:1"
         id="path2666" /><path
         d="m 180.48027,243.47211 h 24.36"
         style="fill:none;stroke:#000000;stroke-width:0.72;stroke-linecap:round;stroke-linejoin:round;stroke-miterlimit:10;stroke-dasharray:none;stroke-opacity:1"
         id="path2668" /><path
         d="m 204.84027,284.27211 1.08,0.12 1.02,0.3 0.9,0.48 0.84,0.72 0.66,0.78 0.48,0.96 0.3,1.02 0.12,1.02"
         style="fill:none;stroke:#000000;stroke-width:0.72;stroke-linecap:round;stroke-linejoin:round;stroke-miterlimit:10;stroke-dasharray:none;stroke-opacity:1"
         id="path2670" /><path
         d="m 177.66027,320.57211 2.82,-2.82"
         style="fill:none;stroke:#000000;stroke-width:0.72;stroke-linecap:round;stroke-linejoin:round;stroke-miterlimit:10;stroke-dasharray:none;stroke-opacity:1"
         id="path2672" /><path
         d="m 210.24027,312.35211 -0.12,1.02 -0.3,1.02 -0.48,0.96 -0.66,0.78 -0.84,0.66 -0.9,0.54 -1.02,0.3 -1.08,0.12"
         style="fill:none;stroke:#000000;stroke-width:0.72;stroke-linecap:round;stroke-linejoin:round;stroke-miterlimit:10;stroke-dasharray:none;stroke-opacity:1"
         id="path2674" /><path
         d="m 210.24027,312.35211 v -22.68"
         style="fill:none;stroke:#000000;stroke-width:0.72;stroke-linecap:round;stroke-linejoin:round;stroke-miterlimit:10;stroke-dasharray:none;stroke-opacity:1"
         id="path2676" /><path
         d="m 204.84027,358.25211 1.08,0.12 1.02,0.3 0.9,0.48 0.84,0.66 0.66,0.84 0.48,0.9 0.3,1.02 0.12,1.08"
         style="fill:none;stroke:#000000;stroke-width:0.72;stroke-linecap:round;stroke-linejoin:round;stroke-miterlimit:10;stroke-dasharray:none;stroke-opacity:1"
         id="path2678" /><path
         d="m 210.24027,238.13211 -0.12,1.02 -0.3,1.02 -0.48,0.96 -0.66,0.78 -0.84,0.66 -0.9,0.54 -1.02,0.3 -1.08,0.06"
         style="fill:none;stroke:#000000;stroke-width:0.72;stroke-linecap:round;stroke-linejoin:round;stroke-miterlimit:10;stroke-dasharray:none;stroke-opacity:1"
         id="path2680" /><path
         d="m 177.66027,390.95211 v -18.66"
         style="fill:none;stroke:#000000;stroke-width:0.72;stroke-linecap:round;stroke-linejoin:round;stroke-miterlimit:10;stroke-dasharray:none;stroke-opacity:1"
         id="path2682" /><path
         d="m 177.66027,229.49211 v -18.72"
         style="fill:none;stroke:#000000;stroke-width:0.72;stroke-linecap:round;stroke-linejoin:round;stroke-miterlimit:10;stroke-dasharray:none;stroke-opacity:1"
         id="path2684" /><path
         d="m 177.66027,229.49211 h 27.18"
         style="fill:none;stroke:#000000;stroke-width:0.6;stroke-linecap:round;stroke-linejoin:round;stroke-miterlimit:10;stroke-dasharray:none;stroke-opacity:1"
         id="path2690" /><path
         d="m 177.66027,372.29211 h 27.18"
         style="fill:none;stroke:#000000;stroke-width:0.6;stroke-linecap:round;stroke-linejoin:round;stroke-miterlimit:10;stroke-dasharray:none;stroke-opacity:1"
         id="path2692" /><path
         d="m 204.84027,229.49211 1.08,0.06 1.02,0.3 0.9,0.54 0.84,0.66 0.66,0.84 0.48,0.9 0.3,1.02 0.12,1.02"
         style="fill:none;stroke:#000000;stroke-width:0.72;stroke-linecap:round;stroke-linejoin:round;stroke-miterlimit:10;stroke-dasharray:none;stroke-opacity:1"
         id="path2698" /><path
         d="m 210.24027,366.89211 -0.12,1.02 -0.3,1.02 -0.48,0.96 -0.66,0.78 -0.84,0.66 -0.9,0.54 -1.02,0.3 -1.08,0.12"
         style="fill:none;stroke:#000000;stroke-width:0.72;stroke-linecap:round;stroke-linejoin:round;stroke-miterlimit:10;stroke-dasharray:none;stroke-opacity:1"
         id="path2700" /><path
         d="m 210.24027,238.13211 v -3.3"
         style="fill:none;stroke:#000000;stroke-width:0.72;stroke-linecap:round;stroke-linejoin:round;stroke-miterlimit:10;stroke-dasharray:none;stroke-opacity:1"
         id="path2706" /><path
         d="m 210.24027,366.89211 v -3.24"
         style="fill:none;stroke:#000000;stroke-width:0.72;stroke-linecap:round;stroke-linejoin:round;stroke-miterlimit:10;stroke-dasharray:none;stroke-opacity:1"
         id="path2708" /><path
         d="m 180.48027,317.75211 h 24.36"
         style="fill:none;stroke:#000000;stroke-width:0.72;stroke-linecap:round;stroke-linejoin:round;stroke-miterlimit:10;stroke-dasharray:none;stroke-opacity:1"
         id="path2714" /><path
         d="m 204.84027,358.25211 h -24.36"
         style="fill:none;stroke:#000000;stroke-width:0.72;stroke-linecap:round;stroke-linejoin:round;stroke-miterlimit:10;stroke-dasharray:none;stroke-opacity:1"
         id="path2716" /><g
         aria-label="1
4"
         transform="matrix(0,1,1,0,0,0)"
         id="text45302"
         style="font-size:6px;line-height:1.25;stroke-width:0.75"><path
           d="m 356.1329,191.93875 h -2.36132 v -0.44531 h 0.9082 v -2.92383 h -0.9082 v -0.39844 q 0.18457,0 0.3955,-0.0293 0.21094,-0.0322 0.31934,-0.0908 0.13477,-0.0733 0.21094,-0.18457 0.0791,-0.11426 0.0908,-0.30469 h 0.4541 v 3.93164 h 0.89062 z"
           id="path1583" /><path
           d="m 356.48154,198.21121 h -0.64746 v 1.22754 h -0.5625 v -1.22754 h -2.08887 v -0.67383 l 2.1123,-2.46093 h 0.53907 v 2.66601 h 0.64746 z m -1.20996,-0.46875 v -1.96875 l -1.69043,1.96875 z"
           id="path1580" /></g><g
         aria-label="1"
         transform="matrix(0,1,1,0,0,0)"
         id="text45302-9"
         style="font-size:6px;line-height:1.25;stroke-width:0.75"><path
           d="m 248.37277,195.68875 h -2.36133 v -0.44531 h 0.90821 v -2.92383 h -0.90821 v -0.39844 q 0.18457,0 0.39551,-0.0293 0.21094,-0.0322 0.31934,-0.0908 0.13476,-0.0733 0.21094,-0.18457 0.0791,-0.11426 0.0908,-0.30469 h 0.4541 v 3.93164 h 0.89062 z"
           id="path1577" /></g><g
         aria-label="2"
         transform="matrix(0,1,1,0,0,0)"
         id="text45302-6"
         style="font-size:6px;line-height:1.25;stroke-width:0.75"><path
           d="m 254.32867,195.72684 h -2.95312 v -0.61231 q 0.30762,-0.26367 0.61523,-0.52734 0.31055,-0.26367 0.57715,-0.52442 0.5625,-0.54492 0.77051,-0.86425 0.20801,-0.32227 0.20801,-0.69434 0,-0.33984 -0.22559,-0.53027 -0.22265,-0.19336 -0.62402,-0.19336 -0.2666,0 -0.57715,0.0937 -0.31055,0.0937 -0.60645,0.28711 h -0.0293 v -0.61524 q 0.20801,-0.10254 0.55371,-0.1875 0.34863,-0.085 0.67383,-0.085 0.6709,0 1.05175,0.3252 0.38086,0.32226 0.38086,0.87597 0,0.24903 -0.0645,0.46582 -0.0615,0.21387 -0.18457,0.40723 -0.11426,0.18164 -0.26953,0.35742 -0.15234,0.17578 -0.37207,0.38965 -0.31348,0.30762 -0.64746,0.59766 -0.33399,0.28711 -0.62403,0.5332 h 2.34668 z"
           id="path1574" /></g><g
         aria-label="3"
         transform="matrix(0,1,1,0,0,0)"
         id="text45302-8"
         style="font-size:6px;line-height:1.25;stroke-width:0.75"><path
           d="m 259.62686,193.58084 q 0.14063,0.12598 0.23145,0.31641 0.0908,0.19043 0.0908,0.49218 0,0.29883 -0.1084,0.54786 -0.1084,0.24902 -0.30469,0.43359 -0.21973,0.20508 -0.51855,0.30469 -0.2959,0.0967 -0.65039,0.0967 -0.36329,0 -0.71485,-0.0879 -0.35156,-0.085 -0.57715,-0.1875 v -0.61231 h 0.0439 q 0.24902,0.16406 0.58594,0.27246 0.33691,0.1084 0.65039,0.1084 0.18457,0 0.39258,-0.0615 0.208,-0.0615 0.33691,-0.18164 0.13477,-0.12891 0.19922,-0.28418 0.0674,-0.15528 0.0674,-0.39258 0,-0.23438 -0.0762,-0.38672 -0.0732,-0.15527 -0.20508,-0.24316 -0.13183,-0.0908 -0.31933,-0.12305 -0.1875,-0.0352 -0.4043,-0.0352 h -0.26367 v -0.48632 h 0.20507 q 0.44532,0 0.70899,-0.18457 0.2666,-0.1875 0.2666,-0.54493 0,-0.1582 -0.0674,-0.27539 -0.0674,-0.12011 -0.1875,-0.19629 -0.12598,-0.0762 -0.26953,-0.10547 -0.14356,-0.0293 -0.3252,-0.0293 -0.27832,0 -0.5918,0.0996 -0.31347,0.0996 -0.59179,0.28125 h -0.0293 v -0.61231 q 0.20801,-0.10254 0.55371,-0.1875 0.34863,-0.0879 0.67383,-0.0879 0.31934,0 0.5625,0.0586 0.24316,0.0586 0.43945,0.1875 0.21094,0.14062 0.31934,0.33984 0.1084,0.19922 0.1084,0.46582 0,0.36328 -0.25782,0.63574 -0.25488,0.26953 -0.60351,0.33985 v 0.041 q 0.14062,0.0234 0.32226,0.0996 0.18165,0.0732 0.30762,0.18457 z"
           id="path1571" /></g><g
         aria-label="4"
         transform="matrix(0,1,1,0,0,0)"
         id="text45302-4"
         style="font-size:6px;line-height:1.25;stroke-width:0.75"><path
           d="m 265.82153,194.45389 h -0.64746 v 1.22754 h -0.5625 v -1.22754 h -2.08886 v -0.67383 l 2.1123,-2.46094 h 0.53906 v 2.66602 h 0.64746 z m -1.20996,-0.46875 v -1.96875 l -1.69043,1.96875 z"
           id="path1568" /></g><g
         aria-label="5"
         transform="matrix(0,1,1,0,0,0)"
         id="text45302-90"
         style="font-size:6px;line-height:1.25;stroke-width:0.75"><path
           d="m 271.25299,194.25027 q 0,0.30469 -0.11133,0.58301 -0.11133,0.27832 -0.30468,0.46875 -0.21094,0.20508 -0.50391,0.31641 -0.29004,0.1084 -0.67383,0.1084 -0.35742,0 -0.68848,-0.0762 -0.33105,-0.0733 -0.55957,-0.17872 v -0.61816 h 0.041 q 0.24023,0.15234 0.5625,0.26074 0.32227,0.10547 0.63281,0.10547 0.20801,0 0.40137,-0.0586 0.19629,-0.0586 0.34863,-0.20508 0.12891,-0.12598 0.19336,-0.30176 0.0674,-0.17578 0.0674,-0.40723 0,-0.22558 -0.0791,-0.38085 -0.0762,-0.15528 -0.21386,-0.24903 -0.15235,-0.11133 -0.37207,-0.15527 -0.2168,-0.0469 -0.48633,-0.0469 -0.25782,0 -0.49805,0.0352 -0.2373,0.0352 -0.41016,0.0703 v -2.24707 h 2.625 v 0.5127 h -2.05957 v 1.16015 q 0.12598,-0.0117 0.25782,-0.0176 0.13183,-0.006 0.22851,-0.006 0.35449,0 0.6211,0.0615 0.2666,0.0586 0.48925,0.21094 0.23438,0.16113 0.36328,0.41601 0.12891,0.25489 0.12891,0.63867 z"
           id="path1565" /></g><g
         aria-label="6"
         transform="matrix(0,1,1,0,0,0)"
         id="text45302-3"
         style="font-size:6px;line-height:1.25;stroke-width:0.75"><path
           d="m 277.03604,194.26199 q 0,0.66504 -0.43945,1.08692 -0.43653,0.41894 -1.07227,0.41894 -0.32226,0 -0.58593,-0.0996 -0.26368,-0.0996 -0.46583,-0.2959 -0.25195,-0.24316 -0.38964,-0.64453 -0.13477,-0.40136 -0.13477,-0.96679 0,-0.58008 0.12305,-1.02832 0.12597,-0.44825 0.39844,-0.79688 0.25781,-0.33105 0.66503,-0.51562 0.40723,-0.1875 0.94922,-0.1875 0.17285,0 0.29004,0.0146 0.11719,0.0146 0.23731,0.0527 v 0.55957 h -0.0293 q -0.082,-0.0439 -0.24902,-0.082 -0.16407,-0.041 -0.33692,-0.041 -0.62988,0 -1.00488,0.39551 -0.375,0.39258 -0.43652,1.06348 0.24609,-0.14942 0.48339,-0.22559 0.24024,-0.0791 0.55372,-0.0791 0.27832,0 0.48925,0.0527 0.21387,0.0498 0.43653,0.20508 0.25781,0.17871 0.38672,0.45117 0.13183,0.27246 0.13183,0.66211 z m -0.59473,0.0234 q 0,-0.27246 -0.082,-0.45117 -0.0791,-0.17871 -0.26367,-0.31055 -0.13476,-0.0937 -0.29883,-0.12304 -0.16406,-0.0293 -0.34277,-0.0293 -0.24902,0 -0.46289,0.0586 -0.21387,0.0586 -0.43945,0.18164 -0.006,0.0645 -0.009,0.12598 -0.003,0.0586 -0.003,0.14941 0,0.46289 0.0937,0.73243 0.0967,0.2666 0.26367,0.42187 0.13477,0.12891 0.29004,0.19043 0.1582,0.0586 0.34277,0.0586 0.42481,0 0.66797,-0.25781 0.24316,-0.26074 0.24316,-0.74707 z"
           id="path1562" /></g><g
         aria-label="7"
         transform="matrix(0,1,1,0,0,0)"
         id="text45302-30"
         style="font-size:6px;line-height:1.25;stroke-width:0.75"><path
           d="m 282.64478,191.97244 -1.97461,3.70899 h -0.62696 l 2.10059,-3.84961 h -2.48438 v -0.5127 h 2.98536 z"
           id="path1559" /></g><g
         aria-label="8"
         transform="matrix(0,1,1,0,0,0)"
         id="text45302-40"
         style="font-size:6px;line-height:1.25;stroke-width:0.75"><path
           d="m 322.36191,194.46561 q 0,0.56543 -0.44238,0.94043 -0.43946,0.375 -1.10743,0.375 -0.70898,0 -1.13086,-0.36621 -0.41894,-0.36622 -0.41894,-0.9375 0,-0.36329 0.21094,-0.65625 0.21093,-0.2959 0.59472,-0.46875 v -0.0176 q -0.35156,-0.1875 -0.52148,-0.41016 -0.16699,-0.22266 -0.16699,-0.55664 0,-0.49219 0.40429,-0.82031 0.4043,-0.32813 1.02832,-0.32813 0.65332,0 1.04297,0.31348 0.38965,0.31348 0.38965,0.79687 0,0.2959 -0.18457,0.58301 -0.18457,0.28418 -0.54199,0.44531 v 0.0176 q 0.41015,0.17578 0.62695,0.4336 0.2168,0.25781 0.2168,0.65625 z m -0.69434,-2.12989 q 0,-0.31347 -0.24316,-0.49804 -0.24024,-0.1875 -0.61524,-0.1875 -0.36914,0 -0.60644,0.17578 -0.23438,0.17578 -0.23438,0.47461 0,0.21094 0.11719,0.36621 0.12012,0.15234 0.36035,0.27246 0.1084,0.0527 0.31055,0.13769 0.20508,0.085 0.39844,0.14063 0.29004,-0.19336 0.40136,-0.40137 0.11133,-0.20801 0.11133,-0.48047 z m 0.0908,2.18555 q 0,-0.26953 -0.12011,-0.43066 -0.11719,-0.16407 -0.4629,-0.32813 -0.13769,-0.0645 -0.30175,-0.12012 -0.16407,-0.0557 -0.43653,-0.15527 -0.26367,0.14356 -0.4248,0.38965 -0.1582,0.24609 -0.1582,0.55664 0,0.39551 0.27246,0.65332 0.27246,0.25781 0.6914,0.25781 0.42774,0 0.68262,-0.21972 0.25781,-0.21973 0.25781,-0.60352 z"
           id="path1556" /></g><g
         aria-label="9"
         transform="matrix(0,1,1,0,0,0)"
         id="text45302-64"
         style="font-size:6px;line-height:1.25;stroke-width:0.75"><path
           d="m 328.05606,193.23953 q 0,0.57129 -0.13184,1.03711 -0.1289,0.46582 -0.39257,0.79395 -0.2666,0.33398 -0.66797,0.51562 -0.40137,0.18164 -0.94336,0.18164 -0.15235,0 -0.28711,-0.0176 -0.13477,-0.0146 -0.24024,-0.0498 v -0.55957 h 0.0293 q 0.085,0.0439 0.24024,0.085 0.15527,0.0381 0.3457,0.0381 0.64746,0 1.01367,-0.38672 0.36914,-0.38965 0.42774,-1.07227 -0.27247,0.16406 -0.5127,0.23438 -0.24023,0.0703 -0.52441,0.0703 -0.26954,0 -0.48926,-0.0527 -0.2168,-0.0527 -0.43653,-0.20508 -0.25781,-0.17871 -0.38964,-0.4541 -0.12891,-0.2754 -0.12891,-0.65918 0,-0.66797 0.43945,-1.08692 0.43946,-0.41894 1.07227,-0.41894 0.31641,0 0.58594,0.0996 0.26953,0.0967 0.47168,0.29296 0.24902,0.24317 0.38379,0.62696 0.13476,0.38086 0.13476,0.9873 z m -0.5918,-0.12597 q 0,-0.45411 -0.0937,-0.7295 -0.0937,-0.27539 -0.25781,-0.42773 -0.13769,-0.13184 -0.2959,-0.1875 -0.1582,-0.0586 -0.34277,-0.0586 -0.42188,0 -0.66797,0.26367 -0.24316,0.26367 -0.24316,0.74121 0,0.27832 0.0791,0.4541 0.0791,0.17578 0.2666,0.30762 0.13184,0.0908 0.29004,0.12304 0.1582,0.0293 0.35156,0.0293 0.22852,0 0.46289,-0.0615 0.23438,-0.0615 0.43946,-0.17871 0.003,-0.0615 0.006,-0.12012 0.006,-0.0615 0.006,-0.15527 z"
           id="path1553" /></g><g
         aria-label="1
0"
         transform="matrix(0,1,1,0,0,0)"
         id="text45302-38"
         style="font-size:6px;line-height:1.25;stroke-width:0.75"><path
           d="m 333.41772,191.89334 h -2.36132 v -0.44531 h 0.9082 v -2.92383 h -0.9082 v -0.39844 q 0.18457,0 0.3955,-0.0293 0.21094,-0.0322 0.31934,-0.0908 0.13477,-0.0733 0.21094,-0.18457 0.0791,-0.11426 0.0908,-0.30469 h 0.4541 v 3.93164 h 0.89062 z"
           id="path1550" /><path
           d="m 333.66089,197.21072 q 0,1.17481 -0.36914,1.72559 -0.36621,0.54785 -1.13965,0.54785 -0.78516,0 -1.14844,-0.55664 -0.36035,-0.55664 -0.36035,-1.71094 0,-1.16308 0.36621,-1.71679 0.36621,-0.55664 1.14258,-0.55664 0.78516,0 1.14551,0.56543 0.36328,0.5625 0.36328,1.70214 z m -0.77051,1.33008 q 0.10254,-0.2373 0.1377,-0.55664 0.0381,-0.32226 0.0381,-0.77344 0,-0.44531 -0.0381,-0.77343 -0.0352,-0.32813 -0.14063,-0.55664 -0.10254,-0.22559 -0.28125,-0.33985 -0.17578,-0.11426 -0.4541,-0.11426 -0.27539,0 -0.45703,0.11426 -0.17871,0.11426 -0.28418,0.34571 -0.0996,0.21679 -0.1377,0.56542 -0.0351,0.34864 -0.0351,0.76465 0,0.45703 0.0322,0.76465 0.0322,0.30762 0.1377,0.55078 0.0967,0.22852 0.27246,0.34864 0.17871,0.12011 0.47168,0.12011 0.27539,0 0.45703,-0.11425 0.18164,-0.11426 0.28125,-0.34571 z"
           id="path1547" /></g><g
         aria-label="1
1"
         transform="matrix(0,1,1,0,0,0)"
         id="text45302-0"
         style="font-size:6px;line-height:1.25;stroke-width:0.75"><path
           d="m 339.03278,191.93875 h -2.36133 v -0.44531 h 0.9082 v -2.92383 h -0.9082 v -0.39844 q 0.18457,0 0.39551,-0.0293 0.21093,-0.0322 0.31933,-0.0908 0.13477,-0.0733 0.21094,-0.18457 0.0791,-0.11426 0.0908,-0.30469 h 0.4541 v 3.93164 h 0.89063 z"
           id="path1544" /><path
           d="m 339.03278,199.43875 h -2.36133 v -0.44531 h 0.9082 v -2.92383 h -0.9082 v -0.39844 q 0.18457,0 0.39551,-0.0293 0.21093,-0.0322 0.31933,-0.0908 0.13477,-0.0733 0.21094,-0.18457 0.0791,-0.11426 0.0908,-0.30469 h 0.4541 v 3.93164 h 0.89063 z"
           id="path1541" /></g><g
         aria-label="1
2"
         transform="matrix(0,1,1,0,0,0)"
         id="text45302-37"
         style="font-size:6px;line-height:1.25;stroke-width:0.75"><path
           d="m 344.71964,191.93875 h -2.36133 v -0.44531 h 0.9082 v -2.92383 h -0.9082 v -0.39844 q 0.18457,0 0.3955,-0.0293 0.21094,-0.0322 0.31934,-0.0908 0.13477,-0.0733 0.21094,-0.18457 0.0791,-0.11426 0.0908,-0.30469 h 0.4541 v 3.93164 h 0.89063 z"
           id="path1538" /><path
           d="m 344.96866,199.43875 h -2.95313 v -0.6123 q 0.30762,-0.26368 0.61524,-0.52735 0.31054,-0.26367 0.57715,-0.52441 0.5625,-0.54492 0.7705,-0.86426 0.20801,-0.32226 0.20801,-0.69434 0,-0.33984 -0.22558,-0.53027 -0.22266,-0.19336 -0.62403,-0.19336 -0.2666,0 -0.57715,0.0937 -0.31054,0.0937 -0.60644,0.28711 h -0.0293 v -0.61523 q 0.20801,-0.10254 0.55371,-0.1875 0.34864,-0.085 0.67383,-0.085 0.6709,0 1.05176,0.32519 0.38086,0.32227 0.38086,0.87598 0,0.24902 -0.0644,0.46582 -0.0615,0.21387 -0.18458,0.40722 -0.11425,0.18165 -0.26953,0.35743 -0.15234,0.17578 -0.37207,0.38965 -0.31347,0.30761 -0.64746,0.59765 -0.33398,0.28711 -0.62402,0.5332 h 2.34668 z"
           id="path1535" /></g><g
         aria-label="1
3"
         transform="matrix(0,1,1,0,0,0)"
         id="text45302-2"
         style="font-size:6px;line-height:1.25;stroke-width:0.75"><path
           d="m 350.44162,191.89334 h -2.36133 v -0.44531 h 0.9082 v -2.92383 h -0.9082 v -0.39844 q 0.18457,0 0.39551,-0.0293 0.21094,-0.0322 0.31934,-0.0908 0.13476,-0.0733 0.21093,-0.18457 0.0791,-0.11426 0.0908,-0.30469 h 0.4541 v 3.93164 h 0.89063 z"
           id="path1532" /><path
           d="m 350.30685,197.29276 q 0.14063,0.12597 0.23145,0.3164 0.0908,0.19043 0.0908,0.49219 0,0.29883 -0.1084,0.54785 -0.1084,0.24902 -0.30469,0.43359 -0.21972,0.20508 -0.51855,0.30469 -0.2959,0.0967 -0.65039,0.0967 -0.36328,0 -0.71485,-0.0879 -0.35156,-0.085 -0.57714,-0.1875 v -0.6123 h 0.0439 q 0.24903,0.16406 0.58594,0.27246 0.33691,0.1084 0.65039,0.1084 0.18457,0 0.39258,-0.0615 0.20801,-0.0615 0.33691,-0.18164 0.13477,-0.1289 0.19922,-0.28418 0.0674,-0.15527 0.0674,-0.39258 0,-0.23437 -0.0762,-0.38672 -0.0732,-0.15527 -0.20508,-0.24316 -0.13183,-0.0908 -0.31933,-0.12305 -0.1875,-0.0352 -0.4043,-0.0352 h -0.26367 v -0.48633 h 0.20508 q 0.44531,0 0.70898,-0.18457 0.2666,-0.1875 0.2666,-0.54492 0,-0.15821 -0.0674,-0.27539 -0.0674,-0.12012 -0.1875,-0.19629 -0.12598,-0.0762 -0.26953,-0.10547 -0.14356,-0.0293 -0.3252,-0.0293 -0.27832,0 -0.59179,0.0996 -0.31348,0.0996 -0.5918,0.28125 h -0.0293 v -0.6123 q 0.20801,-0.10254 0.55371,-0.1875 0.34864,-0.0879 0.67383,-0.0879 0.31934,0 0.5625,0.0586 0.24317,0.0586 0.43946,0.1875 0.21093,0.14062 0.31933,0.33984 0.1084,0.19922 0.1084,0.46582 0,0.36329 -0.25781,0.63575 -0.25489,0.26953 -0.60352,0.33984 v 0.041 q 0.14063,0.0234 0.32227,0.0996 0.18164,0.0733 0.30761,0.18458 z"
           id="path1529" /></g></g></g></svg>
